<?xml version="1.0" encoding="utf-8"?>
<svg xmlns="http://www.w3.org/2000/svg" viewBox="0 0 30 30" width="480" height="480">
  <path d="M7 4.5 A 2.5 2.5 0 0 0 4.5 7 A 2.5 2.5 0 0 0 7 9.5 A 2.5 2.5 0 0 0 9.5 7 A 2.5 2.5 0 0 0 7 4.5 z M 15 4.5 A 2.5 2.5 0 0 0 12.5 7 A 2.5 2.5 0 0 0 15 9.5 A 2.5 2.5 0 0 0 17.5 7 A 2.5 2.5 0 0 0 15 4.5 z M 23 4.5 A 2.5 2.5 0 0 0 20.5 7 A 2.5 2.5 0 0 0 23 9.5 A 2.5 2.5 0 0 0 25.5 7 A 2.5 2.5 0 0 0 23 4.5 z M 7 12.5 A 2.5 2.5 0 0 0 4.5 15 A 2.5 2.5 0 0 0 7 17.5 A 2.5 2.5 0 0 0 9.5 15 A 2.5 2.5 0 0 0 7 12.5 z M 15 12.5 A 2.5 2.5 0 0 0 12.5 15 A 2.5 2.5 0 0 0 15 17.5 A 2.5 2.5 0 0 0 17.5 15 A 2.5 2.5 0 0 0 15 12.5 z M 23 12.5 A 2.5 2.5 0 0 0 20.5 15 A 2.5 2.5 0 0 0 23 17.5 A 2.5 2.5 0 0 0 25.5 15 A 2.5 2.5 0 0 0 23 12.5 z M 7 20.5 A 2.5 2.5 0 0 0 4.5 23 A 2.5 2.5 0 0 0 7 25.5 A 2.5 2.5 0 0 0 9.5 23 A 2.5 2.5 0 0 0 7 20.5 z M 15 20.5 A 2.5 2.5 0 0 0 12.5 23 A 2.5 2.5 0 0 0 15 25.5 A 2.5 2.5 0 0 0 17.5 23 A 2.5 2.5 0 0 0 15 20.5 z M 23 20.5 A 2.5 2.5 0 0 0 20.5 23 A 2.5 2.5 0 0 0 23 25.5 A 2.5 2.5 0 0 0 25.5 23 A 2.5 2.5 0 0 0 23 20.5 z" fill="#FFFFFF" />
</svg>