<?xml version="1.0" encoding="utf-8"?>
<svg xmlns="http://www.w3.org/2000/svg" viewBox="0 0 30 30" width="480" height="480">
  <path d="M4 4L4 24C4 25.1 4.89 26 6 26L14.980469 26L15.019531 26L17.140625 26L26 17.140625L26 4L4 4 z M 12 6L18 6C18.55 6 19 6.45 19 7C19 7.55 18.55 8 18 8L12 8C11.45 8 11 7.55 11 7C11 6.45 11.45 6 12 6 z M 28.230469 18C27.780469 18 27.330469 18.169531 26.980469 18.519531L26.460938 19.039062L28.960938 21.539062L29.480469 21.019531C30.170469 20.329531 30.170469 19.209531 29.480469 18.519531C29.140469 18.169531 28.680469 18 28.230469 18 z M 25.039062 20.460938L20.509766 25L19.509766 26L18.480469 27.029297L18 30L20.980469 29.529297L24.589844 25.910156L24.599609 25.910156L25.910156 24.589844L27.539062 22.960938L26 21.419922L25.039062 20.460938 z" fill="#FFFFFF" />
</svg>