<?xml version="1.0" encoding="utf-8"?>
<svg xmlns="http://www.w3.org/2000/svg" viewBox="0 0 48 48" width="144" height="144">
  <path d="M10.5 6C7.468 6 5 8.468 5 11.5L5 36C5 39.309 7.691 42 11 42L22.605469 42C22.858469 41.042 23.225516 39.759 23.728516 38L11 38C9.897 38 9 37.103 9 36L9 16L39 16L39 22.521484C39.427 22.340484 39.8615 22.188422 40.3125 22.107422C40.7065 22.036422 41.102859 21.992953 41.505859 22.001953C42.015859 22.001953 42.515 22.067641 43 22.181641L43 11.5C43 8.468 40.532 6 37.5 6L10.5 6 z M 13.5 20 A 1.50015 1.50015 0 1 0 13.5 23L15.5 23 A 1.50015 1.50015 0 1 0 15.5 20L13.5 20 z M 21.5 20C20.672 20 20 20.671 20 21.5C20 22.329 20.672 23 21.5 23L34.5 23C35.328 23 36 22.329 36 21.5C36 20.671 35.328 20 34.5 20L21.5 20 z M 41.498047 24C41.224047 24.001 40.946969 24.025172 40.667969 24.076172C39.783969 24.235172 38.939563 24.696156 38.226562 25.410156L26.427734 37.208984C26.070734 37.565984 25.807969 38.011141 25.667969 38.494141L24.097656 43.974609C24.025656 44.164609 23.993 44.365406 24 44.566406C24.013 44.929406 24.155594 45.288406 24.433594 45.566406C24.710594 45.843406 25.067688 45.986 25.429688 46C25.630688 46.007 25.834391 45.975344 26.025391 45.902344L31.505859 44.332031C31.988859 44.192031 32.431062 43.930266 32.789062 43.572266L44.589844 31.773438C45.303844 31.060437 45.764828 30.216031 45.923828 29.332031C45.973828 29.053031 45.997047 28.775953 45.998047 28.501953C46.001047 27.307953 45.540687 26.179312 44.679688 25.320312C43.820687 24.460313 42.692047 23.998 41.498047 24 z M 13.5 26 A 1.50015 1.50015 0 1 0 13.5 29L15.5 29 A 1.50015 1.50015 0 1 0 15.5 26L13.5 26 z M 21.5 26C20.672 26 20 26.671 20 27.5C20 28.329 20.672 29 21.5 29L31.808594 29L34.779297 26.027344C34.688297 26.010344 34.596 26 34.5 26L21.5 26 z M 13.5 32 A 1.50015 1.50015 0 1 0 13.5 35L15.5 35 A 1.50015 1.50015 0 1 0 15.5 32L13.5 32 z M 21.5 32C20.672 32 20 32.671 20 33.5C20 34.329 20.672 35 21.5 35L25.808594 35L28.808594 32L21.5 32 z" fill="#FFFFFF" />
</svg>