<?xml version="1.0" encoding="utf-8"?>
<svg xmlns="http://www.w3.org/2000/svg" viewBox="0 0 48 48" width="144" height="144">
  <path d="M23.970703 5.9726562 A 2.0002 2.0002 0 0 0 22 8L22 15.171875L20.414062 13.585938 A 2.0002 2.0002 0 1 0 17.585938 16.414062L22.585938 21.414062 A 2.0002 2.0002 0 0 0 25.414062 21.414062L30.414062 16.414062 A 2.0002 2.0002 0 1 0 27.585938 13.585938L26 15.171875L26 8 A 2.0002 2.0002 0 0 0 23.970703 5.9726562 z M 8 16 A 2.0002 2.0002 0 1 0 8 20L11 20C12.127968 20 13 20.872032 13 22L13 26.171875L11.414062 24.585938 A 2.0002 2.0002 0 0 0 9.9785156 23.980469 A 2.0002 2.0002 0 0 0 8.5859375 27.414062L13.585938 32.414062 A 2.0002 2.0002 0 0 0 16.414062 32.414062L21.414062 27.414062 A 2.0002 2.0002 0 1 0 18.585938 24.585938L17 26.171875L17 22C17 18.709968 14.290032 16 11 16L8 16 z M 37 16C33.709968 16 31 18.709968 31 22L31 26.171875L29.414062 24.585938 A 2.0002 2.0002 0 0 0 27.978516 23.980469 A 2.0002 2.0002 0 0 0 26.585938 27.414062L31.585938 32.414062 A 2.0002 2.0002 0 0 0 34.414062 32.414062L39.414062 27.414062 A 2.0002 2.0002 0 1 0 36.585938 24.585938L35 26.171875L35 22C35 20.872032 35.872032 20 37 20L40 20 A 2.0002 2.0002 0 1 0 40 16L37 16 z M 7.9707031 31.972656 A 2.0002 2.0002 0 0 0 6 34L6 36C6 39.290032 8.7099679 42 12 42L36 42C39.290032 42 42 39.290032 42 36L42 34 A 2.0002 2.0002 0 1 0 38 34L38 36C38 37.127968 37.127968 38 36 38L12 38C10.872032 38 10 37.127968 10 36L10 34 A 2.0002 2.0002 0 0 0 7.9707031 31.972656 z" fill="#FFFFFF" />
</svg>