<?xml version="1.0" encoding="utf-8"?>
<svg xmlns="http://www.w3.org/2000/svg" width="500" height="500" viewBox="0 0 50 50">
  <path d="M14 5C9.029 5 5 9.029 5 14L5 36C5 40.971 9.029 45 14 45L36 45C40.971 45 45 40.971 45 36L45 14C45 9.029 40.971 5 36 5L14 5 z M 17.363281 10L32.636719 10C36.696719 10 40 13.302281 40 17.363281L40 32.636719C40 36.697719 36.697719 40 32.636719 40L17.363281 40C13.302281 40 10 36.697719 10 32.636719L10 17.363281C10 13.302281 13.302281 10 17.363281 10 z M 17.363281 13C14.953281 13 13 14.953281 13 17.363281L13 32.636719C13 35.045719 14.953281 37 17.363281 37L32.636719 37C35.045719 37 37 35.046719 37 32.636719L37 17.363281C37 14.953281 35.046719 13 32.636719 13L17.363281 13 z" fill="#FFFFFF" />
</svg>