<?xml version="1.0" encoding="utf-8"?>
<svg xmlns="http://www.w3.org/2000/svg" viewBox="0 0 30 30" width="480" height="480">
  <path d="M15 27.121c-.256 0-.512-.098-.707-.293l-3.121-3.121c-.391-.391-.391-1.023 0-1.414l3.121-3.121c.391-.391 1.023-.391 1.414 0l3.121 3.121c.391.391.391 1.023 0 1.414l-3.121 3.121C15.512 27.023 15.256 27.121 15 27.121zM13.293 23L15 24.707 16.707 23 15 21.293 13.293 23zM7.939 22.061c-.256 0-.512-.098-.707-.293l-4.061-4.061c-.391-.391-.391-1.023 0-1.414l4.061-4.061c.391-.391 1.023-.391 1.414 0l4.061 4.061c.391.391.391 1.023 0 1.414l-4.061 4.061C8.451 21.963 8.195 22.061 7.939 22.061zM15 15c-.303 0-.607-.116-.838-.347L9.347 9.838c-.463-.463-.463-1.213 0-1.677l4.814-4.814c.463-.463 1.213-.463 1.677 0l4.814 4.814c.463.463.463 1.213 0 1.677l-4.814 4.814C15.607 14.884 15.303 15 15 15zM21.939 22.061c-.256 0-.512-.098-.707-.293l-4.061-4.061c-.391-.391-.391-1.023 0-1.414l4.061-4.061c.391-.391 1.023-.391 1.414 0l4.061 4.061c.391.391.391 1.023 0 1.414l-4.061 4.061C22.451 21.963 22.195 22.061 21.939 22.061z" fill="#FFFFFF" />
</svg>